<svg xmlns="http://www.w3.org/2000/svg" width="430" height="430" fill="none" viewBox="0 0 430 430"><g stroke="#101f46" stroke-linecap="round" stroke-linejoin="round" stroke-miterlimit="10" stroke-width="18"><path d="M314.1 134v-18.8m18.5 18.8v-18.9M258.9 190v40.5c0 16.2-6.6 30.9-17.2 41.5s-25.3 17.2-41.5 17.2c-2 0-3.9-.1-5.9-.3m-76 84.1v-14.7m18.5 14.7v-14.7m6-165c.1-.1.3-.2.4-.3m115.7-3c10.4 8.1 13.9 19.7 21.4 33.7h17.9v-40.2c0-13.1-1.3-26.2-4.7-38.8-.5-1.8-.7-3.6-.7-5.5 0-11.2 8.9-20.7 21.3-24 3-.8 6.3-1.2 9.6-1.2 17.1 0 31 11.3 31 25.2 0 1.9-.3 3.7-.8 5.5-3.4 12.6-4.7 25.8-4.7 38.9v54.1c0 20.4-16.6 37-37 37h-21m-177.9-41.3c-4.5 12.8-6.6 26.9-6.6 41.3m154.9 100.5v-14.6m18.5 14.6v-14.6m-121.6-5.2c12.3 4.2 24.7 6 40.7 6 15.7 0 28-1.5 40.4-5.3"/><path d="M136.9 373h-18.7c-12.2 0-22.1-9.9-22.1-22.1v-2.1c0-17.3 14-31.3 31.3-31.3h.4c17.3 0 31.3 14 31.3 31.3v2.1c-.1 12.2-10 22.1-22.2 22.1m143.3 2.2h-18.7c-12.2 0-22.1-9.9-22.1-22.1V351c0-17.3 14-31.3 31.3-31.3h.4c17.3 0 31.3 14 31.3 31.3v2.1c0 12.2-9.9 22.1-22.2 22.1M214 205.9c22.1-1.8 36.1-7.6 44.9-15.9 14.9-14 15.2-35.2 15-55.9 0-3.2-.1-6.4-.1-9.6 0-1.3-.1-2.5-.2-3.8 2.2-5.4 20.7-54.6 6.2-63.9-10.6-6.9-32.1 7.7-46.5 21.5-10.2-3.8-21.8-6-34.1-6s-23.9 2.2-34.1 6c-14.4-13.8-35.9-28.4-46.5-21.5-14.4 9.4 3.9 58.5 6.2 63.9-.1 1.3-.2 2.5-.2 3.8 0 3.2 0 6.4-.1 9.6-.2 22.3.2 45.1 18.7 59 8.9 6.7 22 11.3 41.3 12.8"/><path d="M158.9 289.3c-1.3-1.3-2.5-2.8-3.4-4.4-6.5-11.4-14.9-21.5-24.2-30.8l-11-11c-15.5-15.5-15.5-40.7 0-56.2 4.4-4.4 11.5-4.4 15.9 0l31.2 31.2c9.2 9.2 19.4 17.6 30.7 24.1 1.6.9 3.1 2 4.4 3.4 9.8 9.8 8 27.6-4 39.7-12 12-29.7 13.8-39.6 4m132.3-14.6c16 15.5 9.4 47.1 6.6 60.3m-198.6.1c-2.5-13-8.6-44.8 7.5-60.4m79.5-119.6c0 4.2 13 10.4 13 10.4s13-6.2 13-10.4m-13 64.9c8.174 0 14.8-6.626 14.8-14.8s-6.626-14.8-14.8-14.8-14.8 6.627-14.8 14.8 6.626 14.8 14.8 14.8m34.8-80.699c13.8-5 29-5.7 40.7-5.2M234 158.7c16.2-2.2 33.3 5.3 33.3 5.3m-102.5-24.699c-13.8-5-29-5.7-40.7-5.2m40.7 24.599c-16.2-2.2-33.3 5.3-33.3 5.3"/></g></svg>